<svg xmlns:dc="http://purl.org/dc/elements/1.1/" xmlns:cc="http://creativecommons.org/ns#" xmlns:rdf="http://www.w3.org/1999/02/22-rdf-syntax-ns#" xmlns:svg="http://www.w3.org/2000/svg" xmlns="http://www.w3.org/2000/svg" xmlns:sodipodi="http://sodipodi.sourceforge.net/DTD/sodipodi-0.dtd" xmlns:inkscape="http://www.inkscape.org/namespaces/inkscape" version="1.1" x="0px" y="0px" viewBox="0 0 100 125"><g transform="translate(0,-952.36218)"><path style="font-size:medium;font-style:normal;font-variant:normal;font-weight:normal;font-stretch:normal;text-indent:0;text-align:start;text-decoration:none;line-height:normal;letter-spacing:normal;word-spacing:normal;text-transform:none;direction:ltr;block-progression:tb;writing-mode:lr-tb;text-anchor:start;baseline-shift:baseline;opacity:1;color:#000000;fill:#000000;fill-opacity:1;stroke:none;stroke-width:4;marker:none;visibility:visible;display:inline;overflow:visible;enable-background:accumulate;font-family:Sans;-inkscape-font-specification:Sans" d="M 27,6 C 21.075992,6 16,11.05884 16,17 l 0,66 c 0,5.924 5.075992,11 11,11 l 55,0 c 1.047169,0 2,-0.952831 2,-2 L 84,26 C 84,25.169254 83.416259,24.345782 82.625,24.09375 79.843771,23.16667 78.185005,22.0504 77.25,20.9375 76.314995,19.8246 76.000002,18.658645 76,17 c -2e-6,-1.658645 0.314995,-2.85585 1.25,-3.96875 0.861817,-1.025788 2.346188,-2.056775 4.75,-2.9375 0,0 0.726259,-0.1970639 1.026296,-0.376795 C 83.609566,9.3675593 84,8.729375 84,8 84,6.8954305 83.104569,6 82,6 z m 0,4 47.71875,0 C 74.564871,10.16057 74.328795,10.26932 74.1875,10.4375 72.623086,12.29956 72.000001,14.628115 72,17 c -2e-6,2.371885 0.623086,4.66919 2.1875,6.53125 C 74.337831,23.71018 74.585421,23.82968 74.75,24 L 27,24 c -3.494072,0 -7,-3.50597 -7,-7 0,-3.49403 3.505928,-7 7,-7 z M 20,25.375 C 21.923336,26.997793 24.377446,28 27,28 l 53,0 0,62 -53,0 c -3.494072,0 -7,-3.506 -7,-7 z" transform="translate(0,952.36218)"/></g></svg>
