<svg xmlns="http://www.w3.org/2000/svg" xmlns:xlink="http://www.w3.org/1999/xlink" version="1.1" x="0px" y="0px" viewBox="0 0 100 125" style="enable-background:new 0 0 100 100;" xml:space="preserve"><style type="text/css">
	.st0{fill:none;stroke:#000000;stroke-width:3;stroke-linecap:round;stroke-linejoin:round;stroke-miterlimit:10;}
	.st1{fill:none;stroke:#000000;stroke-width:3;stroke-miterlimit:10;}
</style><path d="M19.9,80.9c1.3,1.3,3,2,4.9,2c0.1,0,0.2,0,0.3,0c2.2-0.1,4.2-1.1,5.7-2.8l20.8-24l2.6-2.6l4,4c0.7,0.7,1.6,1,2.5,1  s1.9-0.4,2.5-1l15.4-15.4c5.7-5.7,5.7-15.1,0-20.8c-2.8-2.8-6.5-4.3-10.4-4.3c-3.9,0-7.6,1.5-10.4,4.3L42.5,36.7  c-0.7,0.7-1,1.6-1,2.5c0,1,0.4,1.9,1,2.5l4,4l-2.6,2.6l-24,20.8c-1.7,1.5-2.7,3.5-2.8,5.7c-0.1,2,0.6,3.8,2,5.2L19.9,80.9z   M43.9,40.3C43.9,40.3,43.9,40.3,43.9,40.3c-0.3-0.3-0.5-0.7-0.5-1.1c0-0.4,0.2-0.8,0.5-1.1l15.4-15.4c2.4-2.4,5.6-3.7,9-3.7  c3.4,0,6.6,1.3,9,3.7c5,5,5,13,0,18L61.9,56c-0.6,0.6-1.6,0.6-2.2,0L43.9,40.3z M47.9,47.1l4.9,4.9L50.9,54l-2.5-2.5l-2.5-2.5  L47.9,47.1z M21.1,70.7l23.3-20.2l2.5,2.5l2.5,2.5L29.3,78.8c-1.1,1.3-2.6,2-4.3,2.1c-1.4,0.1-2.7-0.5-3.7-1.4l-0.8-0.8  c-1-1-1.5-2.3-1.4-3.7C19.1,73.3,19.9,71.8,21.1,70.7z"/><path d="M75.4,24.5c-0.4-0.4-1-0.4-1.4,0L53.9,44.6c-0.4,0.4-0.4,1,0,1.4c0.2,0.2,0.5,0.3,0.7,0.3s0.5-0.1,0.7-0.3l20.1-20.1  C75.8,25.5,75.8,24.9,75.4,24.5z"/></svg>
