<svg xmlns="http://www.w3.org/2000/svg" xmlns:xlink="http://www.w3.org/1999/xlink" version="1.1" x="0px" y="0px" viewBox="0 0 100 125" enable-background="new 0 0 100 100" xml:space="preserve"><path d="M65.632,51.277c1.028-1.393,2.286-3.836,2.286-7.487V32.82c0-3.729-2.667-6.845-6.193-7.547  c0.62-0.836,1.207-1.865,1.207-3.67c0-2.659-2.163-4.822-4.822-4.822c-0.057,0-0.113,0.003-0.17,0.008  c-0.06,0.005-6.02,0.565-7.94,0.565c-1.919,0-7.882-0.56-7.942-0.565c-0.056-0.005-0.113-0.008-0.169-0.008  c-2.658,0-4.82,2.163-4.82,4.822c0,1.804,0.587,2.833,1.207,3.669c-3.528,0.701-6.195,3.818-6.195,7.547v10.97  c0,3.652,1.257,6.096,2.286,7.489c-2.348,3.031-3.958,6.328-3.958,11.961c0,6.535,3.265,12.401,8.776,15.848l0.792,2.813  c0.219,0.779,0.931,1.317,1.74,1.317h16.567c0.81,0,1.52-0.537,1.74-1.316l0.795-2.816c5.51-3.445,8.774-9.31,8.774-15.845  C69.592,57.607,67.98,54.31,65.632,51.277z M64.303,32.82v10.97c0,2.128-0.549,3.636-1.099,4.619  c-0.122-0.138-0.243-0.274-0.368-0.414l-0.594-0.667c-3.882-4.374-4.755-11.277-2.405-18.587h0.383  C62.471,28.74,64.303,30.57,64.303,32.82z M35.696,43.79V32.82c0-2.25,1.832-4.081,4.083-4.081h0.384  c2.349,7.311,1.475,14.214-2.408,18.587l-0.596,0.67c-0.124,0.138-0.243,0.273-0.365,0.41C36.243,47.423,35.696,45.916,35.696,43.79  z M58.329,76.36c-0.513,0.292-0.827,0.806-0.886,1.367l-0.529,1.875h-13.83l-0.51-1.812c-0.045-0.585-0.375-1.127-0.908-1.431  c-4.786-2.726-7.644-7.631-7.644-13.12c0-6.291,2.196-8.755,5.835-12.837l0.602-0.676c4.904-5.523,5.975-14.107,2.865-22.959  c-0.574-1.633-1.315-2.581-1.857-3.272c-0.585-0.748-0.783-1-0.783-1.892c0-0.643,0.505-1.17,1.138-1.204  c0.844,0.079,6.213,0.572,8.177,0.572c1.966,0,7.332-0.493,8.176-0.572c0.635,0.034,1.142,0.562,1.142,1.204  c0,0.893-0.197,1.145-0.783,1.892c-0.542,0.692-1.284,1.64-1.857,3.272c-3.11,8.852-2.041,17.435,2.861,22.96l0.601,0.674  c3.641,4.083,5.839,6.547,5.839,12.839C65.977,68.73,63.117,73.635,58.329,76.36z"/></svg>
